<svg version="1.1" id="Layer_1" xmlns="http://www.w3.org/2000/svg" xmlns:xlink="http://www.w3.org/1999/xlink" x="0px" y="0px" width="100%" viewBox="0 0 1195 896" enable-background="new 0 0 1195 896" xml:space="preserve">
	<!-- Background -->
	<circle cx="50%" cy="45%" r="270" stroke="none" fill="#F1E5CD" />
	<circle cx="50%" cy="45%" r="240" stroke="none" fill="#AE3161" />
	<circle cx="50%" cy="45%" r="205" stroke="none" fill="#EC695B" />
	<circle cx="50%" cy="45%" r="170" stroke="none" fill="#F1B74E" />
	<circle cx="50%" cy="45%" r="135" stroke="none" fill="#F1E5CD" />
	<path d="M 597 403 L 371 485 A 240 240 0 0 0 823 486 Z" fill="#F1E5CD"/>
	<!-- Logs  -->
	<path fill="#48244E" stroke="none" d="M 501,473 L 715,563 L 695,609 L 481,519 A 25 25 0 0 1 501,473 Z"/>
	<path fill="#562F5A" stroke="none" d="M 504,610 L 484,564 L 699,473 A 25 25 0 0 1 719,519 Z"/>
	<circle cx="705" cy="586" r="25" stroke="none" fill="#673361" />
	<circle cx="494" cy="587" r="25" stroke="none" fill="#763C62" />
	<!-- Fire -->
	<path fill="#B9356D" stroke="none" d="M583.31,490.12L564.67,487.33C547.40,480.15 534.14,469.89 523.78,454.33C516.29,441.74 511.55,427.45 509.36,412.64C509.25,395.33 511.71,380.20 519.04,365.11L532.10,345.61L539.94,335.71L545.90,360.59L552.60,366.45L559.37,354.39L588.40,316.21C593.32,300.48 595.12,287.63 594.82,269.34L605.71,275.30L636.86,312.11C646.32,329.01 652.25,345.40 654.04,365.58C663.02,362.18 667.10,354.16 670.57,341.23L681.22,353.38C701.01,382.53 703.41,418.04 686.38,449.04C682.33,456.25 677.20,462.73 671.38,468.58C657.21,482.40 639.74,489.85 619.85,490.20L601.10,491.90L583.33,490.12L583.31,490.12Z"/>
	<path fill="#EB6956" stroke="none" d="M589.47,490.74L577.27,488.91C565.98,484.22 557.31,477.51 550.53,467.33C545.64,459.09 542.54,449.75 541.10,440.07C541.03,428.75 542.64,418.85 547.43,408.98L555.97,396.22L561.10,389.75L565.00,406.02L569.38,409.85L573.81,401.97L592.80,377.00C596.01,366.71 597.19,358.31 596.99,346.34L604.12,350.24L624.49,374.32C630.67,385.37 634.56,396.09 635.73,409.29C641.60,407.07 644.27,401.82 646.53,393.36L653.50,401.30C666.44,420.37 668.01,443.59 656.88,463.87C654.22,468.59 650.87,472.82 647.06,476.65C637.80,485.68 626.37,490.56 613.36,490.79L601.10,491.90L589.48,490.74L589.47,490.74ZM593.60,491.15L593.60,491.15L601.10,491.90L609.01,491.18C617.40,491.04 624.78,487.89 630.75,482.06C633.21,479.59 635.37,476.86 637.08,473.82C644.27,460.74 643.26,445.75 634.91,433.45L630.41,428.33C628.95,433.78 627.23,437.17 623.44,438.60C622.68,430.09 620.18,423.17 616.19,416.04L603.05,400.51L598.45,397.99C598.58,405.71 597.82,411.13 595.74,417.77L583.49,433.88L580.64,438.97L577.81,436.49L575.29,426.00L571.98,430.17L566.47,438.40C563.38,444.77 562.34,451.16 562.39,458.46C563.32,464.71 565.32,470.73 568.47,476.05C572.85,482.61 578.44,486.94 585.73,489.97L593.60,491.15Z"/>
	<path fill="#F8A142" stroke="none" d="M593.60,491.15L585.73,489.97C578.44,486.94 572.85,482.61 568.47,476.05C565.32,470.73 563.32,464.71 562.39,458.46C562.34,451.16 563.38,444.77 566.47,438.40L571.98,430.17L575.29,426.00L577.81,436.49L580.64,438.97L583.49,433.88L595.74,417.77C597.82,411.13 598.58,405.71 598.45,397.99L603.05,400.51L616.19,416.04C620.18,423.17 622.68,430.09 623.44,438.60C627.23,437.17 628.95,433.78 630.41,428.33L634.91,433.45C643.26,445.75 644.27,460.74 637.08,473.82C635.37,476.86 633.21,479.59 630.75,482.06C624.78,487.89 617.40,491.04 609.01,491.18L601.10,491.90L593.60,491.15L593.60,491.15Z"/>
<!--	<path fill="#B9356D" d="M467.27,662.74L432.95,657.51C401.17,644.09 376.78,624.88 357.71,595.77C343.94,572.20 335.21,545.47 331.18,517.76C330.97,485.37 335.50,457.05 348.98,428.81L373.02,392.32L387.45,373.79L398.42,420.35L410.75,431.31L423.21,408.75L476.63,337.30C485.69,307.87 489.00,283.82 488.43,249.60L508.48,260.76L565.81,329.63C583.21,361.25 594.14,391.93 597.43,429.70C613.95,423.33 621.46,408.32 627.84,384.12L647.44,406.85C683.86,461.41 688.27,527.86 656.94,585.87C649.48,599.36 640.04,611.48 629.33,622.42C603.26,648.28 571.10,662.24 534.51,662.89L500.00,666.07L467.29,662.74Z"/>-->
<!--	<path fill="#EB6956" d="M478.59,663.93L456.15,660.57C435.36,651.93 419.42,639.58 406.94,620.86C397.93,605.70 392.23,588.51 389.59,570.68C389.45,549.85 392.41,531.64 401.23,513.47L416.95,490.01L426.39,478.09L433.57,508.03L441.63,515.08L449.78,500.58L484.72,454.62C490.64,435.69 492.81,420.22 492.44,398.21L505.55,405.39L543.04,449.69C554.42,470.03 561.57,489.76 563.72,514.05C574.52,509.95 579.44,500.30 583.61,484.74L596.43,499.35C620.25,534.44 623.13,577.18 602.64,614.49C597.76,623.17 591.59,630.96 584.58,638.00C567.53,654.63 546.50,663.61 522.57,664.02L500.00,666.07L478.61,663.93ZM486.19,664.69L486.20,664.69L500.00,666.07L514.56,664.75C530.00,664.48 543.57,658.69 554.57,647.96C559.09,643.42 563.07,638.39 566.22,632.79C579.44,608.72 577.58,581.15 562.21,558.51L553.94,549.08C551.25,559.12 548.08,565.35 541.11,567.99C539.72,552.32 535.11,539.59 527.77,526.47L503.58,497.89L495.12,493.26C495.36,507.46 493.96,517.44 490.14,529.65L467.60,559.30L462.34,568.66L457.14,564.11L452.51,544.79L446.42,552.48L436.28,567.62C430.59,579.34 428.68,591.09 428.77,604.53C430.47,616.03 434.15,627.12 439.96,636.90C448.01,648.98 458.30,656.95 471.71,662.52L486.19,664.69Z"/>-->
<!--	<path fill="#F8A142" d="M486.19,664.69L471.71,662.52C458.30,656.95 448.01,648.98 439.96,636.90C434.15,627.12 430.47,616.03 428.77,604.53C428.68,591.09 430.59,579.34 436.28,567.62L446.42,552.48L452.51,544.79L457.14,564.11L462.34,568.66L467.60,559.30L490.14,529.65C493.96,517.44 495.36,507.46 495.12,493.26L503.58,497.89L527.77,526.47C535.11,539.59 539.72,552.32 541.11,567.99C548.08,565.35 551.25,559.12 553.94,549.08L562.21,558.51C577.58,581.15 579.44,608.72 566.22,632.79C563.07,638.39 559.09,643.42 554.57,647.96C543.57,658.69 530.00,664.48 514.56,664.75L500.00,666.07L486.20,664.69Z"/>-->
</svg>